<svg width="132" height="162" viewBox="0 0 132 162" fill="none" xmlns="http://www.w3.org/2000/svg">
<path fill-rule="evenodd" clip-rule="evenodd" d="M110.993 0C105.641 2.86285 102 8.50623 102 15C102 24.3889 109.611 32 119 32C123.684 32 127.925 30.1058 131 27.0416V143.002C131 153.494 122.494 162 112.002 162H18.9981C8.50574 162 0 153.494 0 143.002V18.9981C0 8.50574 8.50574 0 18.9981 0H110.993Z" fill="#495795" fill-opacity="0.1"/>
<path d="M110.993 0L111.229 0.440886L110.993 -0.5V0ZM131 27.0416H131.5V25.8374L130.647 26.6875L131 27.0416ZM102.5 15C102.5 8.69792 106.033 3.22021 111.229 0.440886L110.757 -0.440886C105.249 2.50548 101.5 8.31455 101.5 15H102.5ZM119 31.5C109.887 31.5 102.5 24.1127 102.5 15H101.5C101.5 24.665 109.335 32.5 119 32.5V31.5ZM130.647 26.6875C127.662 29.6621 123.546 31.5 119 31.5V32.5C123.821 32.5 128.188 30.5495 131.353 27.3958L130.647 26.6875ZM130.5 27.0416V143.002H131.5V27.0416H130.5ZM130.5 143.002C130.5 153.218 122.218 161.5 112.002 161.5V162.5C122.77 162.5 131.5 153.77 131.5 143.002H130.5ZM112.002 161.5H18.9981V162.5H112.002V161.5ZM18.9981 161.5C8.78188 161.5 0.5 153.218 0.5 143.002H-0.5C-0.5 153.77 8.22959 162.5 18.9981 162.5V161.5ZM0.5 143.002V18.9981H-0.5V143.002H0.5ZM0.5 18.9981C0.5 8.78189 8.78188 0.5 18.9981 0.5V-0.5C8.2296 -0.5 -0.5 8.2296 -0.5 18.9981H0.5ZM18.9981 0.5H110.993V-0.5H18.9981V0.5Z" fill="#495795"/>
</svg>
